<svg width="14" height="9" viewBox="0 0 14 9" fill="none" xmlns="http://www.w3.org/2000/svg">
<path d="M12.8077 1.0583C12.8657 1.00023 12.9347 0.954166 13.0105 0.92274C13.0864 0.891313 13.1677 0.875137 13.2499 0.875137C13.332 0.875137 13.4133 0.891313 13.4892 0.92274C13.565 0.954166 13.634 1.00023 13.692 1.0583C13.7501 1.11637 13.7962 1.1853 13.8276 1.26117C13.859 1.33705 13.8752 1.41836 13.8752 1.50048C13.8752 1.58261 13.859 1.66392 13.8276 1.7398C13.7962 1.81567 13.7501 1.8846 13.692 1.94267L7.44205 8.19267C7.384 8.25078 7.31507 8.29688 7.2392 8.32833C7.16332 8.35979 7.08199 8.37598 6.99986 8.37598C6.91772 8.37598 6.8364 8.35979 6.76052 8.32833C6.68465 8.29688 6.61572 8.25078 6.55767 8.19267L0.307672 1.94267C0.190396 1.8254 0.124512 1.66634 0.124512 1.50048C0.124512 1.33463 0.190396 1.17557 0.307672 1.0583C0.424947 0.941021 0.584007 0.875137 0.749859 0.875137C0.915712 0.875137 1.07477 0.941021 1.19205 1.0583L6.99986 6.86689L12.8077 1.0583Z" fill="#343330"/>
</svg>
