<svg width="23" height="23" viewBox="0 0 23 23" fill="none" xmlns="http://www.w3.org/2000/svg">
<path d="M22.1172 20.5696C22.2188 20.6712 22.2994 20.7918 22.3544 20.9246C22.4094 21.0574 22.4377 21.1997 22.4377 21.3434C22.4377 21.4871 22.4094 21.6294 22.3544 21.7622C22.2994 21.8949 22.2188 22.0156 22.1172 22.1172C22.0156 22.2188 21.8949 22.2994 21.7622 22.3544C21.6294 22.4094 21.4871 22.4377 21.3434 22.4377C21.1997 22.4377 21.0574 22.4094 20.9246 22.3544C20.7918 22.2994 20.6712 22.2188 20.5696 22.1172L11.4996 13.0459L2.42971 22.1172C2.22448 22.3224 1.94612 22.4377 1.65588 22.4377C1.36564 22.4377 1.08729 22.3224 0.882053 22.1172C0.676821 21.912 0.561523 21.6336 0.561523 21.3434C0.561523 21.0531 0.676821 20.7748 0.882053 20.5696L9.95334 11.4996L0.882053 2.42971C0.676821 2.22448 0.561523 1.94612 0.561523 1.65588C0.561523 1.36564 0.676821 1.08729 0.882053 0.882053C1.08729 0.676821 1.36564 0.561523 1.65588 0.561523C1.94612 0.561523 2.22448 0.676821 2.42971 0.882053L11.4996 9.95334L20.5696 0.882053C20.7748 0.676821 21.0531 0.561523 21.3434 0.561523C21.6336 0.561523 21.912 0.676821 22.1172 0.882053C22.3224 1.08729 22.4377 1.36564 22.4377 1.65588C22.4377 1.94612 22.3224 2.22448 22.1172 2.42971L13.0459 11.4996L22.1172 20.5696Z" fill="#343330"/>
</svg>
