<svg width="14" height="25" viewBox="0 0 14 25" fill="none" xmlns="http://www.w3.org/2000/svg">
<path d="M13.6487 22.6633C13.7503 22.7649 13.8309 22.8856 13.8859 23.0183C13.9409 23.1511 13.9692 23.2934 13.9692 23.4371C13.9692 23.5808 13.9409 23.7232 13.8859 23.8559C13.8309 23.9887 13.7503 24.1093 13.6487 24.211C13.5471 24.3126 13.4264 24.3932 13.2937 24.4482C13.1609 24.5032 13.0186 24.5315 12.8749 24.5315C12.7312 24.5315 12.5889 24.5032 12.4561 24.4482C12.3233 24.3932 12.2027 24.3126 12.1011 24.211L1.16356 13.2735C1.06186 13.1719 0.981189 13.0513 0.926147 12.9185C0.871105 12.7857 0.842773 12.6434 0.842773 12.4996C0.842773 12.3559 0.871105 12.2136 0.926147 12.0808C0.981189 11.948 1.06186 11.8274 1.16356 11.7258L12.1011 0.788303C12.3063 0.583071 12.5846 0.467773 12.8749 0.467773C13.1651 0.467773 13.4435 0.583071 13.6487 0.788303C13.8539 0.993535 13.9692 1.27189 13.9692 1.56213C13.9692 1.85237 13.8539 2.13073 13.6487 2.33596L3.48367 12.4996L13.6487 22.6633Z" fill="#343330"/>
</svg>
