<svg width="14" height="25" viewBox="0 0 14 25" fill="none" xmlns="http://www.w3.org/2000/svg">
<path d="M0.351289 22.6633C0.249668 22.7649 0.16906 22.8856 0.114063 23.0183C0.0590658 23.1511 0.0307579 23.2934 0.0307579 23.4371C0.0307579 23.5808 0.0590658 23.7232 0.114063 23.8559C0.16906 23.9887 0.249668 24.1093 0.351289 24.211C0.452909 24.3126 0.573551 24.3932 0.706325 24.4482C0.839098 24.5032 0.981404 24.5315 1.12512 24.5315C1.26883 24.5315 1.41114 24.5032 1.54391 24.4482C1.67668 24.3932 1.79733 24.3126 1.89895 24.211L12.8364 13.2735C12.9381 13.1719 13.0188 13.0513 13.0739 12.9185C13.1289 12.7857 13.1572 12.6434 13.1572 12.4996C13.1572 12.3559 13.1289 12.2136 13.0739 12.0808C13.0188 11.948 12.9381 11.8274 12.8364 11.7258L1.89895 0.788303C1.69371 0.583071 1.41536 0.467773 1.12512 0.467773C0.834875 0.467773 0.55652 0.583071 0.351289 0.788303C0.146057 0.993535 0.0307579 1.27189 0.0307579 1.56213C0.0307579 1.85237 0.146057 2.13073 0.351289 2.33596L10.5163 12.4996L0.351289 22.6633Z" fill="#343330"/>
</svg>
