<svg width="16" height="16" viewBox="0 0 16 16" fill="none" xmlns="http://www.w3.org/2000/svg">
<path d="M15.875 12.3745V0.999514C15.875 0.767449 15.7828 0.544888 15.6187 0.380795C15.4546 0.216701 15.2321 0.124514 15 0.124514H3.625C3.39293 0.124514 3.17037 0.216701 3.00628 0.380795C2.84219 0.544888 2.75 0.767449 2.75 0.999514C2.75 1.23158 2.84219 1.45414 3.00628 1.61823C3.17037 1.78233 3.39293 1.87451 3.625 1.87451H12.888L0.380936 14.3805C0.21675 14.5446 0.124512 14.7673 0.124512 14.9995C0.124512 15.2317 0.21675 15.4544 0.380936 15.6186C0.545121 15.7828 0.767805 15.875 0.999998 15.875C1.23219 15.875 1.45488 15.7828 1.61906 15.6186L14.125 3.11155V12.3745C14.125 12.6066 14.2172 12.8291 14.3813 12.9932C14.5454 13.1573 14.7679 13.2495 15 13.2495C15.2321 13.2495 15.4546 13.1573 15.6187 12.9932C15.7828 12.8291 15.875 12.6066 15.875 12.3745Z" fill="#222222"/>
</svg>
